<mxfile host="app.diagrams.net" agent="Mozilla/5.0 (Windows NT 10.0; Win64; x64) AppleWebKit/537.36 (KHTML, like Gecko) Chrome/137.0.0.0 Safari/537.36" version="27.1.6">
  <diagram name="Page-1" id="uWK25iD6VsfL0weJsALw">
    <mxGraphModel dx="1042" dy="561" grid="1" gridSize="10" guides="1" tooltips="1" connect="1" arrows="1" fold="1" page="1" pageScale="1" pageWidth="850" pageHeight="1100" math="0" shadow="0">
      <root>
        <mxCell id="0" />
        <mxCell id="1" parent="0" />
        <mxCell id="IfqX3-qLnQjPzocHjiq8-1" value="DimShiftType" style="swimlane;childLayout=stackLayout;horizontal=1;startSize=50;horizontalStack=0;rounded=1;fontSize=14;fontStyle=0;strokeWidth=2;resizeParent=0;resizeLast=1;shadow=0;dashed=0;align=center;arcSize=4;whiteSpace=wrap;html=1;labelBackgroundColor=none;fillColor=#A8DADC;strokeColor=#457B9D;fontColor=#1D3557;" vertex="1" parent="1">
          <mxGeometry x="550" y="130" width="160" height="120" as="geometry" />
        </mxCell>
        <mxCell id="IfqX3-qLnQjPzocHjiq8-2" value="ShiftTypeID_BK&lt;div&gt;ShiftCode&lt;/div&gt;&lt;div&gt;Label_EN&lt;/div&gt;&lt;div&gt;Label_FA&lt;/div&gt;" style="align=left;strokeColor=none;fillColor=none;spacingLeft=4;spacingRight=4;fontSize=12;verticalAlign=top;resizable=0;rotatable=0;part=1;html=1;whiteSpace=wrap;labelBackgroundColor=none;fontColor=#1D3557;" vertex="1" parent="IfqX3-qLnQjPzocHjiq8-1">
          <mxGeometry y="50" width="160" height="70" as="geometry" />
        </mxCell>
        <mxCell id="IfqX3-qLnQjPzocHjiq8-9" style="edgeStyle=orthogonalEdgeStyle;rounded=0;orthogonalLoop=1;jettySize=auto;html=1;exitX=0;exitY=0.25;exitDx=0;exitDy=0;entryX=1;entryY=0.25;entryDx=0;entryDy=0;labelBackgroundColor=none;strokeColor=#457B9D;fontColor=default;" edge="1" parent="1" source="IfqX3-qLnQjPzocHjiq8-3" target="IfqX3-qLnQjPzocHjiq8-8">
          <mxGeometry relative="1" as="geometry" />
        </mxCell>
        <mxCell id="IfqX3-qLnQjPzocHjiq8-3" value="FactTrnsShift" style="swimlane;childLayout=stackLayout;horizontal=1;startSize=50;horizontalStack=0;rounded=1;fontSize=14;fontStyle=0;strokeWidth=2;resizeParent=0;resizeLast=1;shadow=0;dashed=0;align=center;arcSize=4;whiteSpace=wrap;html=1;labelBackgroundColor=none;fillColor=#A8DADC;strokeColor=#457B9D;fontColor=#1D3557;" vertex="1" parent="1">
          <mxGeometry x="340" y="110" width="160" height="180" as="geometry" />
        </mxCell>
        <mxCell id="IfqX3-qLnQjPzocHjiq8-4" value="&lt;div&gt;&amp;nbsp; &amp;nbsp; EmployeeKey&amp;nbsp; &amp;nbsp;&lt;/div&gt;&lt;div&gt;&amp;nbsp; &amp;nbsp; DateKey&amp;nbsp; &amp;nbsp; &amp;nbsp; &amp;nbsp;&lt;/div&gt;&lt;div&gt;&amp;nbsp; &amp;nbsp; ShiftTypeKey&amp;nbsp;&amp;nbsp;&lt;/div&gt;&lt;div&gt;&amp;nbsp; &amp;nbsp; StartTimeKey&amp;nbsp;&amp;nbsp;&lt;/div&gt;&lt;div&gt;&amp;nbsp; &amp;nbsp; EndTimeKey&amp;nbsp; &amp;nbsp;&amp;nbsp;&lt;/div&gt;&lt;div&gt;&amp;nbsp; &amp;nbsp; HoursWorked&amp;nbsp; &amp;nbsp;&lt;/div&gt;&lt;div&gt;&amp;nbsp; &amp;nbsp; OvertimeHours&amp;nbsp;&lt;/div&gt;&lt;div&gt;&amp;nbsp; &amp;nbsp; ShiftAllowance&amp;nbsp;&lt;/div&gt;&lt;div&gt;&lt;br&gt;&lt;/div&gt;" style="align=left;strokeColor=none;fillColor=none;spacingLeft=4;spacingRight=4;fontSize=12;verticalAlign=top;resizable=0;rotatable=0;part=1;html=1;whiteSpace=wrap;labelBackgroundColor=none;fontColor=#1D3557;" vertex="1" parent="IfqX3-qLnQjPzocHjiq8-3">
          <mxGeometry y="50" width="160" height="130" as="geometry" />
        </mxCell>
        <mxCell id="IfqX3-qLnQjPzocHjiq8-15" style="edgeStyle=orthogonalEdgeStyle;rounded=0;orthogonalLoop=1;jettySize=auto;html=1;exitX=0;exitY=0.5;exitDx=0;exitDy=0;labelBackgroundColor=none;strokeColor=#457B9D;fontColor=default;" edge="1" parent="1" source="IfqX3-qLnQjPzocHjiq8-5" target="IfqX3-qLnQjPzocHjiq8-14">
          <mxGeometry relative="1" as="geometry" />
        </mxCell>
        <mxCell id="IfqX3-qLnQjPzocHjiq8-5" value="FactMonthlyPayroll" style="swimlane;childLayout=stackLayout;horizontal=1;startSize=50;horizontalStack=0;rounded=1;fontSize=14;fontStyle=0;strokeWidth=2;resizeParent=0;resizeLast=1;shadow=0;dashed=0;align=center;arcSize=4;whiteSpace=wrap;html=1;labelBackgroundColor=none;fillColor=#A8DADC;strokeColor=#457B9D;fontColor=#1D3557;" vertex="1" parent="1">
          <mxGeometry x="345" y="310" width="160" height="180" as="geometry" />
        </mxCell>
        <mxCell id="IfqX3-qLnQjPzocHjiq8-6" value="&lt;div&gt;&lt;div&gt;&amp;nbsp; &amp;nbsp; EmployeeKey&amp;nbsp;&amp;nbsp;&lt;/div&gt;&lt;div&gt;&amp;nbsp; &amp;nbsp; DateKey&lt;span style=&quot;white-space:pre&quot;&gt;&#x9;&#x9;&lt;/span&gt;&amp;nbsp;&lt;/div&gt;&lt;div&gt;&amp;nbsp; &amp;nbsp; GrossPay&amp;nbsp; &amp;nbsp; &amp;nbsp;&amp;nbsp;&lt;/div&gt;&lt;div&gt;&amp;nbsp; &amp;nbsp; NetPay&amp;nbsp; &amp;nbsp; &amp;nbsp; &amp;nbsp;&amp;nbsp;&lt;/div&gt;&lt;div&gt;&amp;nbsp; &amp;nbsp; TaxAmount&amp;nbsp; &amp;nbsp; &amp;nbsp;&lt;/div&gt;&lt;div&gt;&amp;nbsp; &amp;nbsp; InsuranceAmt&amp;nbsp;&lt;/div&gt;&lt;/div&gt;" style="align=left;strokeColor=none;fillColor=none;spacingLeft=4;spacingRight=4;fontSize=12;verticalAlign=top;resizable=0;rotatable=0;part=1;html=1;whiteSpace=wrap;labelBackgroundColor=none;fontColor=#1D3557;" vertex="1" parent="IfqX3-qLnQjPzocHjiq8-5">
          <mxGeometry y="50" width="160" height="130" as="geometry" />
        </mxCell>
        <mxCell id="IfqX3-qLnQjPzocHjiq8-7" style="edgeStyle=orthogonalEdgeStyle;rounded=0;orthogonalLoop=1;jettySize=auto;html=1;exitX=1;exitY=0.25;exitDx=0;exitDy=0;entryX=0;entryY=0.25;entryDx=0;entryDy=0;labelBackgroundColor=none;strokeColor=#457B9D;fontColor=default;" edge="1" parent="1" source="IfqX3-qLnQjPzocHjiq8-4" target="IfqX3-qLnQjPzocHjiq8-1">
          <mxGeometry relative="1" as="geometry" />
        </mxCell>
        <mxCell id="IfqX3-qLnQjPzocHjiq8-8" value="DimEmployee" style="rounded=1;arcSize=10;whiteSpace=wrap;html=1;align=center;labelBackgroundColor=none;fillColor=#A8DADC;strokeColor=#457B9D;fontColor=#1D3557;" vertex="1" parent="1">
          <mxGeometry x="180" y="130" width="100" height="40" as="geometry" />
        </mxCell>
        <mxCell id="IfqX3-qLnQjPzocHjiq8-10" value="DimDate" style="rounded=1;arcSize=10;whiteSpace=wrap;html=1;align=center;labelBackgroundColor=none;fillColor=#A8DADC;strokeColor=#457B9D;fontColor=#1D3557;" vertex="1" parent="1">
          <mxGeometry x="170" y="180" width="100" height="40" as="geometry" />
        </mxCell>
        <mxCell id="IfqX3-qLnQjPzocHjiq8-11" style="edgeStyle=orthogonalEdgeStyle;rounded=0;orthogonalLoop=1;jettySize=auto;html=1;exitX=0;exitY=0.25;exitDx=0;exitDy=0;entryX=1;entryY=0.5;entryDx=0;entryDy=0;labelBackgroundColor=none;strokeColor=#457B9D;fontColor=default;" edge="1" parent="1" source="IfqX3-qLnQjPzocHjiq8-4" target="IfqX3-qLnQjPzocHjiq8-10">
          <mxGeometry relative="1" as="geometry" />
        </mxCell>
        <mxCell id="IfqX3-qLnQjPzocHjiq8-12" value="&amp;nbsp;DimTime" style="rounded=1;arcSize=10;whiteSpace=wrap;html=1;align=center;labelBackgroundColor=none;fillColor=#A8DADC;strokeColor=#457B9D;fontColor=#1D3557;" vertex="1" parent="1">
          <mxGeometry x="170" y="240" width="100" height="40" as="geometry" />
        </mxCell>
        <mxCell id="IfqX3-qLnQjPzocHjiq8-13" style="edgeStyle=orthogonalEdgeStyle;rounded=0;orthogonalLoop=1;jettySize=auto;html=1;exitX=0;exitY=0.5;exitDx=0;exitDy=0;entryX=1;entryY=0.5;entryDx=0;entryDy=0;labelBackgroundColor=none;strokeColor=#457B9D;fontColor=default;" edge="1" parent="1" source="IfqX3-qLnQjPzocHjiq8-4" target="IfqX3-qLnQjPzocHjiq8-12">
          <mxGeometry relative="1" as="geometry" />
        </mxCell>
        <mxCell id="IfqX3-qLnQjPzocHjiq8-14" value="DimEmployee" style="rounded=1;arcSize=10;whiteSpace=wrap;html=1;align=center;labelBackgroundColor=none;fillColor=#A8DADC;strokeColor=#457B9D;fontColor=#1D3557;" vertex="1" parent="1">
          <mxGeometry x="200" y="330" width="100" height="40" as="geometry" />
        </mxCell>
        <mxCell id="IfqX3-qLnQjPzocHjiq8-16" value="DimDate" style="rounded=1;arcSize=10;whiteSpace=wrap;html=1;align=center;labelBackgroundColor=none;fillColor=#A8DADC;strokeColor=#457B9D;fontColor=#1D3557;" vertex="1" parent="1">
          <mxGeometry x="550" y="340" width="100" height="40" as="geometry" />
        </mxCell>
        <mxCell id="IfqX3-qLnQjPzocHjiq8-17" style="edgeStyle=orthogonalEdgeStyle;rounded=0;orthogonalLoop=1;jettySize=auto;html=1;exitX=1;exitY=0.25;exitDx=0;exitDy=0;entryX=0;entryY=0.25;entryDx=0;entryDy=0;labelBackgroundColor=none;strokeColor=#457B9D;fontColor=default;" edge="1" parent="1" source="IfqX3-qLnQjPzocHjiq8-6" target="IfqX3-qLnQjPzocHjiq8-16">
          <mxGeometry relative="1" as="geometry" />
        </mxCell>
      </root>
    </mxGraphModel>
  </diagram>
</mxfile>
